<?xml version="1.0" encoding="UTF-8" standalone="no"?>
<svg viewBox="0 0 160.26401 27.000008" aria-hidden="true" class="h-6" version="1.1" id="svg3" sodipodi:docname="at protocol.svg" inkscape:version="1.3.2 (091e20ef0f, 2023-11-25)" width="160.26401" height="27.000008" xmlns:inkscape="http://www.inkscape.org/namespaces/inkscape" xmlns:sodipodi="http://sodipodi.sourceforge.net/DTD/sodipodi-0.dtd" xmlns="http://www.w3.org/2000/svg" xmlns:svg="http://www.w3.org/2000/svg">
  <defs id="defs3"/>
  <sodipodi:namedview id="namedview3" pagecolor="#ffffff" bordercolor="#000000" borderopacity="0.25" inkscape:showpageshadow="2" inkscape:pageopacity="0.0" inkscape:pagecheckerboard="0" inkscape:deskcolor="#d1d1d1" inkscape:zoom="9.6919523" inkscape:cx="67.323897" inkscape:cy="59.791875" inkscape:window-width="2560" inkscape:window-height="1531" inkscape:window-x="0" inkscape:window-y="0" inkscape:window-maximized="1" inkscape:current-layer="svg3"/>
  <path class="fill-blue-500" d="M 13.482,27 C 11.526,27 9.726,26.676 8.082,26.028 6.438,25.38 5.01,24.462 3.798,23.274 A 12.247,12.247 0 0 1 0.99,19.116 C 0.33,17.52 0,15.786 0,13.914 0,11.682 0.342,9.702 1.026,7.974 1.722,6.246 2.682,4.794 3.906,3.618 A 12.48,12.48 0 0 1 8.19,0.918 C 9.822,0.306 11.568,0 13.428,0 c 2.28,0 4.278,0.354 5.994,1.062 1.716,0.708 3.144,1.668 4.284,2.88 A 11.706,11.706 0 0 1 26.244,8.1 c 0.552,1.548 0.804,3.168 0.756,4.86 -0.06,2.328 -0.546,4.116 -1.458,5.364 -0.912,1.236 -2.328,1.854 -4.248,1.854 a 5.839,5.839 0 0 1 -2.826,-0.702 3.703,3.703 0 0 1 -1.764,-2.07 l 1.044,0.054 c -0.492,0.924 -1.164,1.572 -2.016,1.944 a 6.464,6.464 0 0 1 -2.61,0.558 c -1.212,0 -2.28,-0.258 -3.204,-0.774 A 5.682,5.682 0 0 1 7.74,16.974 C 7.212,16.026 6.948,14.928 6.948,13.68 c 0,-1.284 0.276,-2.394 0.828,-3.33 A 5.77,5.77 0 0 1 10.008,8.154 C 10.944,7.638 12,7.38 13.176,7.38 c 0.78,0 1.59,0.162 2.43,0.486 0.852,0.324 1.512,0.78 1.98,1.368 L 16.848,10.17 V 7.884 h 2.412 l -0.054,6.462 c 0,0.924 0.18,1.62 0.54,2.088 0.36,0.468 0.894,0.702 1.602,0.702 0.624,0 1.104,-0.174 1.44,-0.522 0.348,-0.36 0.588,-0.846 0.72,-1.458 A 10.66,10.66 0 0 0 23.76,13.05 C 23.796,11.19 23.52,9.624 22.932,8.352 22.344,7.08 21.546,6.054 20.538,5.274 a 9.499,9.499 0 0 0 -3.294,-1.71 c -1.2,-0.36 -2.394,-0.54 -3.582,-0.54 -1.68,0 -3.174,0.27 -4.482,0.81 -1.308,0.528 -2.412,1.278 -3.312,2.25 -0.888,0.96 -1.56,2.1 -2.016,3.42 -0.444,1.308 -0.654,2.748 -0.63,4.32 0.048,1.56 0.33,2.964 0.846,4.212 a 9.324,9.324 0 0 0 2.16,3.204 9.38,9.38 0 0 0 3.276,2.034 c 1.26,0.468 2.64,0.702 4.14,0.702 0.84,0 1.674,-0.096 2.502,-0.288 0.84,-0.18 1.608,-0.438 2.304,-0.774 l 1.026,2.808 c -0.924,0.432 -1.896,0.75 -2.916,0.954 A 14.649,14.649 0 0 1 13.482,27 Z M 13.338,16.902 c 0.852,0 1.566,-0.246 2.142,-0.738 0.576,-0.492 0.864,-1.326 0.864,-2.502 0,-1.068 -0.258,-1.872 -0.774,-2.412 -0.504,-0.552 -1.218,-0.828 -2.142,-0.828 -1.092,0 -1.908,0.288 -2.448,0.864 -0.54,0.576 -0.81,1.368 -0.81,2.376 0,1.032 0.276,1.83 0.828,2.394 0.564,0.564 1.344,0.846 2.34,0.846 z" id="path1" style="fill:#3b82f5;fill-opacity:1"/>
  <path class="fill-blue-600 dark:fill-blue-500" d="M 50.919,7.033 V 4.765 H 64.428 V 7.033 H 58.98 V 22.22 H 56.356 V 7.032 H 50.918 Z M 38.512,22.22 H 35.717 L 41.997,4.765 H 45.04 L 51.323,22.22 H 48.527 L 43.592,7.936 h -0.137 z m 0.469,-6.835 h 9.068 v 2.216 h -9.068 z" id="path2" style="fill:white;fill-opacity:1"/>
  <path class="fill-zinc-700 dark:fill-zinc-400" d="M 160.264,4.765 V 22.22 h -2.548 V 4.765 Z m -11.495,17.719 c -1.227,0 -2.298,-0.281 -3.213,-0.843 -0.915,-0.563 -1.625,-1.35 -2.131,-2.361 -0.505,-1.012 -0.758,-2.194 -0.758,-3.546 0,-1.358 0.253,-2.545 0.758,-3.562 0.506,-1.017 1.216,-1.807 2.131,-2.37 0.915,-0.562 1.986,-0.843 3.213,-0.843 1.227,0 2.298,0.28 3.213,0.843 0.915,0.563 1.625,1.353 2.131,2.37 0.506,1.017 0.758,2.204 0.758,3.562 0,1.352 -0.252,2.534 -0.758,3.546 -0.506,1.011 -1.216,1.798 -2.131,2.36 -0.915,0.563 -1.986,0.844 -3.213,0.844 z m 0.009,-2.139 c 0.795,0 1.454,-0.21 1.977,-0.63 0.523,-0.421 0.909,-0.98 1.159,-1.68 0.256,-0.699 0.384,-1.468 0.384,-2.31 0,-0.834 -0.128,-1.602 -0.384,-2.3 -0.25,-0.705 -0.636,-1.27 -1.159,-1.697 -0.523,-0.426 -1.182,-0.639 -1.977,-0.639 -0.801,0 -1.466,0.213 -1.995,0.64 -0.522,0.426 -0.912,0.991 -1.167,1.695 a 6.789,6.789 0 0 0 -0.375,2.302 c 0,0.84 0.125,1.61 0.375,2.31 0.255,0.698 0.645,1.258 1.167,1.678 0.529,0.42 1.194,0.631 1.995,0.631 z m -13.626,2.139 c -1.267,0 -2.358,-0.287 -3.273,-0.86 -0.909,-0.58 -1.608,-1.378 -2.096,-2.395 -0.489,-1.018 -0.733,-2.182 -0.733,-3.495 0,-1.33 0.25,-2.503 0.75,-3.52 0.5,-1.022 1.204,-1.82 2.113,-2.395 0.909,-0.573 1.98,-0.86 3.213,-0.86 0.995,0 1.881,0.184 2.659,0.554 a 4.764,4.764 0 0 1 1.884,1.534 c 0.483,0.659 0.77,1.429 0.861,2.31 h -2.48 a 2.974,2.974 0 0 0 -0.938,-1.586 c -0.483,-0.443 -1.13,-0.665 -1.943,-0.665 -0.71,0 -1.332,0.188 -1.866,0.563 -0.529,0.37 -0.941,0.898 -1.236,1.585 -0.296,0.682 -0.443,1.489 -0.443,2.42 0,0.955 0.144,1.779 0.434,2.472 0.29,0.693 0.699,1.23 1.227,1.61 0.535,0.382 1.162,0.572 1.884,0.572 0.483,0 0.92,-0.088 1.313,-0.264 0.397,-0.182 0.73,-0.44 0.997,-0.776 0.272,-0.335 0.463,-0.739 0.571,-1.21 h 2.48 a 4.823,4.823 0 0 1 -0.827,2.267 4.76,4.76 0 0 1 -1.849,1.568 c -0.767,0.38 -1.668,0.571 -2.702,0.571 z m -14.461,0 c -1.227,0 -2.298,-0.281 -3.213,-0.843 -0.915,-0.563 -1.625,-1.35 -2.131,-2.361 -0.505,-1.012 -0.758,-2.194 -0.758,-3.546 0,-1.358 0.253,-2.545 0.758,-3.562 0.506,-1.017 1.216,-1.807 2.131,-2.37 0.915,-0.562 1.986,-0.843 3.213,-0.843 1.227,0 2.298,0.28 3.213,0.843 0.915,0.563 1.625,1.353 2.131,2.37 0.505,1.017 0.758,2.204 0.758,3.562 0,1.352 -0.253,2.534 -0.758,3.546 -0.506,1.011 -1.216,1.798 -2.131,2.36 -0.915,0.563 -1.986,0.844 -3.213,0.844 z m 0.009,-2.139 c 0.795,0 1.454,-0.21 1.977,-0.63 0.523,-0.421 0.909,-0.98 1.159,-1.68 0.256,-0.699 0.383,-1.468 0.383,-2.31 0,-0.834 -0.127,-1.602 -0.383,-2.3 -0.25,-0.705 -0.636,-1.27 -1.159,-1.697 -0.523,-0.426 -1.182,-0.639 -1.977,-0.639 -0.802,0 -1.466,0.213 -1.995,0.64 -0.522,0.426 -0.912,0.991 -1.167,1.695 a 6.789,6.789 0 0 0 -0.375,2.302 c 0,0.84 0.125,1.61 0.375,2.31 0.255,0.698 0.645,1.258 1.167,1.678 0.529,0.42 1.193,0.631 1.995,0.631 z M 112.499,9.13 v 2.044 h -7.151 V 9.13 Z m -5.233,-3.137 h 2.548 v 12.383 c 0,0.495 0.074,0.867 0.221,1.117 0.148,0.244 0.339,0.412 0.572,0.503 0.238,0.085 0.497,0.127 0.775,0.127 0.205,0 0.384,-0.014 0.537,-0.042 l 0.358,-0.068 0.46,2.105 a 4.307,4.307 0 0 1 -0.63,0.17 4.992,4.992 0 0 1 -1.023,0.102 4.483,4.483 0 0 1 -1.875,-0.358 3.208,3.208 0 0 1 -1.406,-1.159 c -0.358,-0.522 -0.537,-1.179 -0.537,-1.968 z m -9.825,16.491 c -1.227,0 -2.298,-0.281 -3.213,-0.843 -0.915,-0.563 -1.625,-1.35 -2.13,-2.361 -0.506,-1.012 -0.76,-2.194 -0.76,-3.546 0,-1.358 0.254,-2.545 0.76,-3.562 0.505,-1.017 1.215,-1.807 2.13,-2.37 0.915,-0.562 1.986,-0.843 3.213,-0.843 1.227,0 2.298,0.28 3.213,0.843 0.915,0.563 1.625,1.353 2.131,2.37 0.505,1.017 0.758,2.204 0.758,3.562 0,1.352 -0.253,2.534 -0.758,3.546 -0.506,1.011 -1.216,1.798 -2.131,2.36 -0.915,0.563 -1.986,0.844 -3.213,0.844 z m 0.008,-2.139 c 0.796,0 1.455,-0.21 1.978,-0.63 0.523,-0.421 0.909,-0.98 1.159,-1.68 0.256,-0.699 0.383,-1.468 0.383,-2.31 0,-0.834 -0.127,-1.602 -0.383,-2.3 -0.25,-0.705 -0.636,-1.27 -1.159,-1.697 -0.523,-0.426 -1.182,-0.639 -1.978,-0.639 -0.8,0 -1.465,0.213 -1.994,0.64 -0.522,0.426 -0.912,0.991 -1.167,1.695 a 6.789,6.789 0 0 0 -0.375,2.302 c 0,0.84 0.125,1.61 0.375,2.31 0.255,0.698 0.644,1.258 1.167,1.678 0.529,0.42 1.193,0.631 1.995,0.631 z M 83.185,22.22 V 9.13 h 2.463 v 2.079 h 0.136 a 3.164,3.164 0 0 1 1.261,-1.662 3.61,3.61 0 0 1 2.063,-0.614 10.896,10.896 0 0 1 1.082,0.06 v 2.437 a 4.577,4.577 0 0 0 -0.545,-0.094 5.202,5.202 0 0 0 -0.784,-0.06 c -0.603,0 -1.14,0.129 -1.611,0.384 a 2.85,2.85 0 0 0 -1.517,2.566 v 7.994 z m -15.147,0 V 4.765 h 6.221 c 1.358,0 2.483,0.248 3.375,0.742 0.892,0.494 1.56,1.17 2.003,2.028 0.443,0.853 0.665,1.813 0.665,2.881 0,1.074 -0.225,2.04 -0.674,2.898 -0.443,0.852 -1.113,1.528 -2.01,2.028 -0.893,0.494 -2.015,0.742 -3.367,0.742 H 69.972 V 13.85 h 4.04 c 0.858,0 1.554,-0.148 2.088,-0.444 0.534,-0.3 0.926,-0.71 1.176,-1.227 0.25,-0.517 0.375,-1.105 0.375,-1.764 0,-0.66 -0.125,-1.244 -0.375,-1.756 C 77.026,8.148 76.631,7.747 76.092,7.458 75.558,7.168 74.853,7.023 73.978,7.023 H 70.671 V 22.22 Z" id="path3" style="fill:white;fill-opacity:1"/>
</svg>
